# Blender v2.78 (sub 0) OBJ File: ''
# www.blender.org
mtllib pedestal.mtl
o Cube_Cube
v -0.424816 1.939730 -0.424816
v 0.424816 1.939730 -0.424816
v 0.424816 1.939730 0.424816
v -0.424816 1.939730 0.424816
v -0.500000 0.000000 -0.500000
v 0.500000 0.000000 -0.500000
v 0.424816 0.000000 -0.424816
v -0.424816 0.000000 -0.424816
v -0.424816 -0.000000 0.424816
v -0.500000 -0.000000 0.500000
v 0.500000 2.000000 0.500000
v 0.500000 2.000000 -0.500000
v -0.500000 2.000000 -0.500000
v -0.500000 2.000000 0.500000
v 0.500000 -0.000000 0.500000
v 0.424816 -0.000000 0.424816
vt 0.0000 1.0000
vt 0.0000 0.0000
vt 1.0000 0.0000
vt 1.0000 1.0000
vt 0.0670 0.7500
vt 0.5000 1.0000
vt 0.9330 0.7500
vt 0.9330 0.2500
vt 0.5000 0.0000
vt 0.0670 0.2500
vt 0.0000 1.0000
vt 0.0000 0.0000
vt 1.0000 0.0000
vt 1.0000 1.0000
vt 0.0000 1.0000
vt 0.0000 0.0000
vt 1.0000 0.0000
vt 1.0000 1.0000
vt 0.0000 1.0000
vt 0.0000 0.0000
vt 1.0000 0.0000
vt 0.0000 1.0000
vt 0.0000 0.0000
vt 1.0000 0.0000
vt 1.0000 1.0000
vt 0.0000 1.0000
vt 1.0000 0.0000
vt 1.0000 1.0000
vt 0.0000 1.0000
vt 0.0000 0.0000
vt 1.0000 1.0000
vt 0.0000 1.0000
vt 0.0000 0.0000
vt 1.0000 0.0000
vt 1.0000 1.0000
vt 0.0000 1.0000
vt 0.0000 0.0000
vt 1.0000 0.0000
vt 0.0670 0.7500
vt 0.5000 1.0000
vt 0.9330 0.7500
vt 0.9330 0.2500
vt 0.5000 0.0000
vt 0.0670 0.2500
vt 0.0000 1.0000
vt 0.0000 0.0000
vt 1.0000 0.0000
vt 1.0000 1.0000
vn 0.0000 -1.0000 -0.0000
vn 0.0000 1.0000 0.0000
vn 1.0000 0.0000 0.0000
vn 0.0000 -0.0000 1.0000
vn -1.0000 0.0000 0.0000
vn 0.0000 0.0000 -1.0000
usemtl Material.002
s 1
f 1/1/1 2/2/1 3/3/1
f 3/3/1 4/4/1 1/1/1
f 5/5/1 6/6/1 7/7/1
f 5/5/1 7/7/1 8/8/1
f 5/5/1 8/8/1 9/9/1
f 9/9/1 10/10/1 5/5/1
f 11/11/2 12/12/2 13/13/2
f 13/13/2 14/14/2 11/11/2
f 15/15/3 6/16/3 12/17/3
f 12/17/3 11/18/3 15/15/3
f 10/19/4 15/20/4 11/21/4
f 11/21/4 14/14/4 10/19/4
f 5/22/5 10/23/5 14/24/5
f 14/24/5 13/25/5 5/22/5
f 13/26/6 12/12/6 6/27/6
f 6/27/6 5/28/6 13/26/6
f 7/29/5 16/30/5 3/3/5
f 3/3/5 2/31/5 7/29/5
f 8/32/4 7/33/4 2/34/4
f 2/34/4 1/35/4 8/32/4
f 9/36/3 8/37/3 1/38/3
f 1/38/3 4/4/3 9/36/3
f 15/39/1 10/40/1 9/41/1
f 15/39/1 9/41/1 16/42/1
f 15/39/1 16/42/1 7/43/1
f 7/43/1 6/44/1 15/39/1
f 16/45/6 9/46/6 4/47/6
f 4/47/6 3/48/6 16/45/6
