# Blender v2.78 (sub 0) OBJ File: ''
# www.blender.org
mtllib screwhead.mtl
o Circle.004_Circle.000
v 0.049544 0.025013 0.020792
v 0.049380 0.026592 0.024611
v 0.072958 0.024089 0.018748
v 0.074304 -0.012779 0.034311
v 0.041590 -0.013204 0.037212
v 0.041504 -0.009626 0.042316
v 0.053037 0.022386 0.046276
v 0.054438 0.014113 0.051029
v 0.050646 0.028229 0.030857
v 0.047644 0.016832 0.013647
v 0.047646 0.012523 0.012227
v 0.046579 0.008688 0.011000
v 0.044297 -0.007711 0.017997
v 0.040038 -0.005982 0.046771
v 0.039775 -0.000895 0.050227
v 0.038283 0.005683 0.052065
v 0.117573 0.070135 0.035020
v 0.118634 -0.028686 0.081171
v 0.117562 0.022772 0.020929
v 0.111008 0.017059 0.019779
v 0.111871 -0.036572 0.074377
v 0.117598 -0.013874 -0.026263
v 0.117593 0.008764 -0.030334
v 0.117480 0.042803 -0.020798
v 0.110816 0.023374 -0.029214
v 0.110921 0.069485 0.044679
v 0.117075 0.064075 0.005411
v 0.110875 0.065670 0.006879
v 0.117682 0.054242 0.073636
v 0.117891 -0.005073 -0.007569
v 0.093303 0.003364 0.018489
v 0.093967 0.007228 0.046610
v 0.118334 0.005741 0.072679
v 0.118071 0.023867 0.091115
v 0.118121 0.001291 0.092683
v 0.117627 0.047339 0.017983
v 0.093329 0.021856 0.026655
v 0.118258 0.021666 0.069801
v 0.093520 0.012867 0.045177
v 0.117589 0.018795 0.045542
v 0.117847 0.002077 0.047949
v 0.118542 -0.051561 0.049389
v 0.117621 0.014621 0.014615
v 0.118455 -0.051312 0.017020
v 0.117789 -0.002289 0.016976
v 0.093665 -0.005387 0.036294
v 0.117984 -0.006066 0.041870
v 0.118460 -0.030377 0.044638
v 0.112009 -0.050010 0.051613
v 0.117963 -0.039725 -0.008198
v 0.093256 0.005459 0.034847
v 0.110399 0.000145 0.042124
v 0.118319 -0.013497 0.059917
v 0.117687 -0.008251 0.025219
v 0.110457 -0.002716 0.023359
v 0.118149 -0.022355 0.008202
v 0.093170 0.010669 0.028100
v 0.093671 0.009071 0.016596
v 0.093613 -0.006718 0.030554
v 0.118336 -0.032275 0.028787
v 0.093593 0.011464 0.033815
v 0.093731 0.023356 0.032311
v 0.117660 0.049034 0.034050
v 0.117487 0.024975 0.037569
v 0.117468 0.029901 0.003132
v 0.116641 0.025859 0.044569
v 0.111219 0.054265 0.073009
v 0.111762 0.029118 0.090562
v 0.111663 -0.029153 -0.018238
v 0.112107 -0.007740 0.091815
v 0.110936 -0.008365 -0.028368
v 0.111509 -0.046532 0.002045
v 0.110776 0.048849 -0.015487
v 0.081553 0.005029 0.007402
v 0.090222 0.012636 -0.001485
v 0.088561 0.014515 0.061928
v 0.087515 0.032737 0.047732
v 0.084116 -0.009418 0.012989
v 0.112163 -0.054005 0.032616
v 0.084929 -0.017557 0.036021
v 0.084716 0.024735 0.011022
v 0.083504 0.032999 0.025651
v 0.087672 -0.011261 0.053848
v 0.077747 -0.005265 0.048551
v 0.093332 0.004644 0.028817
v 0.117747 0.010498 -0.010001
v 0.078202 -0.011655 0.022582
v 0.075434 0.025345 0.043693
v 0.074052 0.028501 0.030960
v 0.073750 0.013165 0.011596
v 0.077748 0.010681 0.053087
v 0.073448 0.001201 0.012126
v 0.052241 0.009931 0.051891
vn 0.0031 0.9242 -0.3820
vn -0.2507 -0.4995 0.8293
vn 0.3914 0.2494 -0.8858
vn 0.2243 0.1149 0.9677
vn 0.2243 0.1154 0.9677
vn 0.2362 -0.9657 0.1078
vn 0.2172 0.9700 -0.1091
vn 0.2169 0.9701 -0.1093
vn 0.2194 -0.1061 -0.9698
vn 0.4640 0.5927 -0.6584
vn 0.4634 0.5929 -0.6586
vn 0.6166 -0.4678 -0.6332
vn 0.9998 0.0183 -0.0110
vn 0.6045 0.6211 -0.4989
vn 0.6041 0.6215 -0.4987
vn 0.2159 -0.9659 0.1432
vn 0.2158 -0.9658 0.1436
vn 0.2156 -0.9658 0.1438
vn 0.2434 -0.9563 0.1617
vn 0.2435 -0.9564 0.1610
vn 0.2438 -0.9563 0.1612
vn 0.2357 -0.9643 0.1206
vn 0.2049 -0.1252 -0.9707
vn 0.9999 0.0170 0.0023
vn 1.0000 -0.0034 -0.0066
vn 0.9881 0.1525 -0.0202
vn 0.9881 0.1523 -0.0205
vn 0.9929 0.0103 0.1188
vn -0.1606 -0.9662 0.2018
vn 0.4184 0.8403 0.3447
vn 0.1995 0.9593 -0.1997
vn 0.2752 -0.8715 -0.4058
vn -0.0773 0.5695 0.8183
vn -0.0771 0.5692 0.8186
vn 0.3341 -0.5368 -0.7748
vn -0.7804 0.0139 0.6252
vn -0.8086 0.3320 0.4858
vn 1.0000 0.0047 0.0040
vn -0.7963 -0.5786 -0.1763
vn -0.7880 0.2313 -0.5706
vn 0.4954 -0.3448 0.7973
vn 0.2231 0.1527 0.9628
vn 0.2280 0.9607 -0.1583
vn 0.2278 0.9607 -0.1586
vn 0.2113 0.9662 -0.1476
vn 0.2114 0.9662 -0.1473
vn 0.2239 0.1217 0.9670
vn 0.4709 0.6609 0.5844
vn 0.4704 0.6610 0.5846
vn 0.4702 0.6610 0.5847
vn 0.2159 0.9689 -0.1206
vn 0.2162 0.9689 -0.1207
vn 0.2163 0.9688 -0.1212
vn 0.6452 0.4631 0.6077
vn 0.7223 -0.1160 -0.6818
vn 0.7128 0.6957 -0.0889
vn 0.7388 -0.6626 0.1231
vn 0.4694 0.7626 0.4450
vn 0.4696 0.7627 0.4447
vn 0.4644 0.4710 -0.7500
vn 0.9999 0.0004 -0.0159
vn 1.0000 0.0020 -0.0081
vn 1.0000 -0.0065 -0.0030
vn 1.0000 -0.0065 -0.0027
vn 1.0000 0.0042 -0.0025
vn 0.9998 0.0054 -0.0171
vn 1.0000 0.0019 -0.0082
vn 0.9999 0.0061 -0.0104
vn 0.9999 -0.0024 -0.0145
vn -0.3726 -0.9038 -0.2104
vn -0.3602 0.7991 -0.4813
vn -0.5865 -0.6305 -0.5085
vn 0.9999 0.0092 0.0078
vn 0.7215 -0.1198 -0.6820
vn -0.2189 -0.0268 -0.9754
vn 0.9994 0.0045 0.0329
vn 0.9996 0.0280 0.0089
vn 0.7338 0.1115 0.6702
vn 0.7435 0.1668 0.6476
vn -0.5260 0.8138 -0.2469
vn -0.8079 0.4820 -0.3392
vn 0.9996 0.0261 0.0091
vn 0.7270 0.6674 -0.1614
vn 0.0046 -0.9956 -0.0939
vn 0.0273 -0.8868 0.4613
vn -0.0683 -0.3835 -0.9210
vn 0.0332 -0.6232 -0.7813
vn 0.0335 -0.6231 -0.7814
vn 0.9998 0.0169 0.0070
vn 0.3237 0.4748 0.8184
vn 0.3237 0.4750 0.8183
vn -0.0391 0.6624 -0.7481
vn -0.0523 0.2279 0.9723
vn -0.0806 0.9279 0.3641
vn 0.9982 0.0531 -0.0277
vn 0.9982 0.0533 -0.0274
vn 0.0150 0.9400 -0.3410
vn 0.1625 -0.1746 -0.9711
vn 0.3670 -0.3280 0.8705
vn 0.3675 -0.3277 0.8704
vn 0.6580 -0.6978 -0.2830
vn 0.3395 -0.7639 0.5488
vn -0.0314 -0.8608 0.5080
vn -0.1621 -0.9594 -0.2310
vn 0.3763 -0.9265 -0.0081
vn 0.2186 -0.1209 -0.9683
vn 0.2190 -0.1215 -0.9681
vn 0.2229 0.1494 0.9633
vn 0.2230 0.1491 0.9634
vn 0.6368 -0.2996 0.7105
vn 0.6364 -0.2994 0.7109
vn 0.6364 -0.2996 0.7108
vn 0.9996 0.0276 0.0042
vn 1.0000 0.0087 -0.0017
vn 0.9954 -0.0003 0.0958
vn 0.2366 0.7760 -0.5847
vn 0.0506 0.7758 -0.6289
vn -0.0802 -0.4389 -0.8949
vn 0.9996 0.0262 -0.0061
vn 0.9976 -0.0477 0.0501
vn 0.9976 -0.0199 -0.0657
vn -0.7991 -0.0190 -0.6009
vn -0.8263 -0.1423 0.5450
vn -0.5626 -0.2295 0.7943
vn -0.8010 -0.2847 -0.5267
vn -0.8118 0.3223 0.4869
vn -0.7950 0.5308 0.2935
vn -0.8035 0.4775 -0.3556
vn -0.8154 -0.5662 -0.1209
vn -0.8219 0.1835 -0.5393
vn -0.7822 0.6199 -0.0616
vn -0.8001 0.2836 -0.5286
vn -0.7891 -0.4635 -0.4032
vn -0.2281 -0.7385 -0.6345
vn -0.2608 0.4576 -0.8500
vn -0.0427 0.8799 0.4732
vn 0.4655 -0.8693 0.1661
vn 0.9910 0.1272 -0.0424
vn 0.4534 -0.0617 -0.8892
vn 0.9997 0.0137 -0.0217
vn 0.6119 0.7353 0.2914
vn 0.2317 -0.1424 -0.9623
vn 0.4959 -0.6781 0.5424
vn 0.9979 0.0247 -0.0599
vn 1.0000 0.0057 -0.0045
vn 1.0000 0.0058 -0.0041
vn 0.9999 0.0080 -0.0082
vn 1.0000 0.0025 0.0022
vn 1.0000 0.0028 0.0020
vn 0.9999 0.0035 -0.0151
vn 0.9999 0.0098 -0.0026
vn 0.9999 0.0083 -0.0089
vn 0.9996 -0.0238 -0.0126
vn -0.5451 0.8313 0.1089
vn -0.2921 0.9204 0.2598
vn -0.5676 -0.2252 0.7919
vn -0.3189 -0.3905 -0.8636
vn -0.7988 -0.5192 0.3037
vn -0.5340 0.5003 0.6816
vn -0.2775 0.2165 -0.9360
vn -0.6134 -0.7103 0.3452
vn 0.9982 -0.0061 -0.0600
vn 0.9957 -0.0669 -0.0644
vn 0.9957 0.0613 -0.0694
vn 0.9985 -0.0537 0.0130
vn -0.8309 -0.1257 -0.5420
vn -0.4700 -0.3896 -0.7920
vn 0.9992 0.0354 -0.0173
vn 0.9972 -0.0233 -0.0705
vn -0.2357 0.9669 -0.0973
vn -0.7899 -0.6014 0.1200
vn -0.0306 0.3128 -0.9493
vn 0.0113 0.5483 -0.8362
vn -0.0729 -0.9562 -0.2836
vn 0.0118 -0.2666 0.9637
vn 0.0097 -0.2736 0.9618
vn 0.0615 -0.8168 0.5736
vn 0.0617 -0.8165 0.5740
vn -0.0150 -0.7764 0.6300
vn -0.0123 0.9702 0.2418
vn -0.6650 0.3256 0.6721
vn -0.0283 -0.5627 0.8262
vn 0.0252 0.5420 0.8400
vn -0.0306 0.3123 -0.9495
vn -0.0101 0.9678 -0.2517
vn -0.0033 0.4978 0.8673
vn -0.0520 0.2107 0.9762
vn -0.1283 0.0462 0.9907
vn -0.8271 0.5398 0.1566
vn -0.7840 -0.3165 0.5340
vn -0.1716 -0.9308 -0.3228
vn 0.7274 -0.6826 0.0705
vn -0.4942 -0.0260 -0.8690
vn -0.5087 0.4455 -0.7368
vn -0.4207 -0.7564 0.5008
vn 0.0293 -0.0449 -0.9986
usemtl Material.002
s off
f 1//1 2//1 3//1
f 70//2 21//2 18//2
f 24//3 23//3 25//3
f 36//4 37//5 19//5
f 38//6 39//6 40//6
f 30//7 31//7 45//8
f 46//9 47//9 48//9
f 51//10 52//11 47//11
f 52//12 41//12 53//12
f 53//13 48//13 47//13
f 55//14 54//15 56//15
f 57//16 58//17 86//18
f 86//19 43//20 57//21
f 40//22 39//22 61//22
f 61//23 62//23 63//23
f 56//24 30//24 45//24
f 65//25 36//25 19//25
f 86//26 23//27 43//27
f 63//28 66//28 64//28
f 49//29 79//29 42//29
f 26//30 29//30 17//30
f 28//31 17//31 27//31
f 72//32 50//32 44//32
f 29//33 67//34 68//33
f 69//35 22//35 50//35
f 70//36 68//36 76//36
f 76//37 68//37 77//37
f 53//38 42//38 48//38
f 78//39 79//39 80//39
f 75//40 74//40 81//40
f 20//41 57//41 43//41
f 59//42 54//42 85//42
f 51//43 32//43 33//44
f 33//45 41//46 51//46
f 19//47 37//47 57//47
f 85//48 55//49 45//50
f 45//51 31//52 85//53
f 20//54 43//54 65//54
f 39//55 33//55 32//55
f 48//56 60//56 59//56
f 37//57 36//57 62//57
f 55//58 85//59 54//59
f 52//60 51//60 41//60
f 56//61 22//61 30//61
f 42//62 60//62 48//62
f 65//63 24//64 36//63
f 36//65 17//65 63//65
f 50//66 56//66 44//66
f 42//67 56//67 60//67
f 53//68 33//68 18//68
f 23//69 30//69 22//69
f 4//70 87//70 80//70
f 3//71 82//71 81//71
f 78//72 87//72 92//72
f 34//73 18//73 38//73
f 33//74 39//74 38//74
f 71//75 25//75 23//75
f 18//76 34//76 35//76
f 57//77 51//77 85//77
f 30//78 86//78 58//78
f 58//79 31//79 30//79
f 89//80 82//80 3//80
f 82//81 28//81 81//81
f 85//82 51//82 59//82
f 59//83 46//83 48//83
f 87//84 4//84 5//84
f 84//85 6//85 4//85
f 12//86 92//86 13//86
f 92//87 87//87 13//88
f 38//89 29//89 34//89
f 29//90 68//91 34//91
f 1//92 3//92 10//92
f 8//93 93//93 91//93
f 9//94 7//94 88//94
f 27//95 17//95 24//96
f 2//97 89//97 3//97
f 71//98 23//98 22//98
f 18//99 35//99 70//100
f 20//101 65//101 19//101
f 21//102 42//102 18//102
f 49//103 42//103 21//103
f 44//104 79//104 72//104
f 44//105 42//105 79//105
f 47//106 46//106 51//107
f 60//108 54//109 59//109
f 55//110 56//111 45//112
f 54//113 60//113 56//113
f 43//114 23//114 65//114
f 66//115 63//115 17//115
f 28//116 24//116 73//116
f 28//117 27//117 24//117
f 69//118 71//118 22//118
f 57//119 85//119 31//119
f 31//120 58//120 57//120
f 61//121 37//121 62//121
f 71//122 75//122 25//122
f 83//123 70//123 76//123
f 83//124 76//124 84//124
f 78//125 71//125 69//125
f 68//126 67//126 77//126
f 26//127 77//127 67//127
f 28//128 73//128 81//128
f 78//129 72//129 79//129
f 75//130 81//130 25//130
f 26//131 28//131 82//131
f 81//132 73//132 25//132
f 78//133 69//133 72//133
f 72//134 69//134 50//134
f 25//135 73//135 24//135
f 26//136 67//136 29//136
f 61//137 64//137 66//137
f 66//138 38//138 40//138
f 66//139 40//139 61//139
f 41//140 33//140 53//140
f 52//141 53//141 47//141
f 63//142 64//142 61//142
f 20//143 19//143 57//143
f 66//144 29//144 38//144
f 36//145 24//146 17//145
f 30//147 23//147 86//147
f 24//148 65//149 23//149
f 50//150 22//150 56//150
f 42//151 44//151 56//151
f 53//152 18//152 42//152
f 29//153 66//153 17//153
f 88//154 77//154 82//154
f 88//155 82//155 89//155
f 91//156 84//156 76//156
f 92//157 74//157 78//157
f 21//158 83//158 80//158 49//158
f 76//159 77//159 88//159
f 90//160 81//160 74//160
f 80//161 83//161 84//161
f 33//162 38//162 18//162
f 51//163 57//163 61//163
f 39//164 32//164 51//164
f 39//165 51//165 61//165
f 75//166 71//166 78//166
f 75//167 78//167 74//167
f 51//168 46//168 59//168
f 57//169 37//169 61//169
f 26//170 17//170 28//170
f 80//171 79//171 49//171
f 90//172 11//172 10//172
f 90//173 10//173 3//173
f 87//174 5//174 13//174
f 84//175 16//175 15//175
f 16//176 84//176 91//176
f 4//177 6//177 5//178
f 84//179 14//179 6//179
f 89//180 9//180 88//180
f 88//181 91//181 76//181
f 14//182 84//182 15//182
f 88//183 7//183 91//183
f 11//184 90//184 12//184
f 9//185 89//185 2//185
f 91//186 7//186 8//186
f 93//187 16//187 91//187
f 68//188 70//188 35//188 34//188
f 82//189 77//189 26//189
f 21//190 70//190 83//190
f 78//191 80//191 87//191
f 62//192 36//192 63//192
f 92//193 90//193 74//193
f 90//194 3//194 81//194
f 4//195 80//195 84//195
f 12//196 90//196 92//196
