# Blender v2.78 (sub 0) OBJ File: ''
# www.blender.org
mtllib fragment.mtl
o Cube_Cube.001_Cube_Cube.001
v 0.302434 0.706654 0.266326
v 0.760219 0.691614 0.711737
v 0.970258 0.661624 0.264053
v 0.614874 0.731270 -0.840827
v 0.326768 0.967263 -0.415750
v 0.879218 0.910711 -0.333006
v -0.070465 0.968385 -0.000133
v -0.206277 1.004270 -0.710623
v -0.524600 0.983236 -0.147148
v -0.557894 0.663797 0.316422
v 0.237608 -1.017360 0.405174
v -0.705863 -0.794705 0.776345
v -0.588342 -0.804536 0.425301
v 0.681282 -0.905557 0.807223
v 0.122687 -0.985509 0.989289
v 0.964228 0.677585 -0.256849
v 0.599305 -0.662350 0.033103
v 0.658243 -0.847636 0.348136
v 0.976045 -0.890987 0.120955
v -1.021040 0.306129 0.985786
v -0.601927 -0.595380 0.912313
v -0.445983 0.434911 0.882635
v -0.756045 0.872981 0.924081
v 0.960665 -0.844700 0.838809
v 0.632754 -0.174072 0.827641
v -0.077830 -0.410495 0.963239
v 0.017489 0.197572 0.888040
v 0.952635 0.302810 0.788574
v 0.074622 0.882867 0.776712
v -0.504054 0.754421 0.693571
v 0.998517 -0.077491 -0.290163
v 0.737853 -0.549443 -0.523021
v 0.849864 0.466539 -0.585010
v 0.880103 0.376381 -0.925901
v 0.779719 -0.257470 -0.553773
v 0.534270 -0.500764 -0.493352
v -0.346436 -0.425289 0.027619
v -0.580722 -0.922300 -0.029989
v -0.280663 -0.604649 -0.272320
v -0.717112 -0.031794 0.312503
v -0.291396 -0.155749 -0.452842
v -0.132337 -0.533109 -0.591544
v -0.671913 0.393920 -0.298285
v -0.640837 0.035617 -0.283334
v -0.830096 0.427027 0.376415
v -0.957222 0.337241 0.585210
v -0.827157 0.893491 -0.350561
v -0.795000 0.841251 -0.584046
v 0.048076 0.676719 -0.792003
v -0.290799 0.788538 -0.888382
v -0.639590 0.662130 -0.629633
v -0.088296 -0.732967 -0.607312
v 0.875031 0.006607 -0.791451
v 0.390907 0.032764 -0.614556
v 0.538349 0.342959 -1.009870
v -0.332757 0.258192 -0.507606
vt 0.5736 0.2687
vt 0.6712 0.3497
vt 0.5920 0.4079
vt 0.3745 0.3687
vt 0.4538 0.2933
vt 0.4844 0.4059
vt 0.5204 0.1975
vt 0.3831 0.1916
vt 0.4793 0.1077
vt 0.5555 0.0887
vt 0.8057 0.6149
vt 0.7220 0.4231
vt 0.7915 0.4416
vt 0.7371 0.7147
vt 0.6916 0.6010
vt 0.4938 0.4231
vt 0.8887 0.6833
vt 0.8261 0.7017
vt 0.8745 0.7644
vt 0.2553 0.4159
vt 0.0429 0.3535
vt 0.0796 0.3314
vt 0.2790 0.2939
vt 0.3648 0.3574
vt 0.0254 0.0036
vt 0.1569 0.0695
vt 0.0151 0.0624
vt 0.1126 0.2206
vt 0.2309 0.1975
vt 0.2484 0.0000
vt 0.3255 0.0384
vt 0.3648 0.1820
vt 0.0502 0.8775
vt 0.0000 0.8775
vt 0.0482 0.7991
vt 0.1199 0.6246
vt 0.1926 0.7991
vt 0.0698 0.7200
vt 0.3322 0.7958
vt 0.1327 0.4661
vt 0.2336 0.4742
vt 0.0186 0.4473
vt 0.0668 0.5067
vt 0.0000 0.5227
vt 0.9330 0.3045
vt 0.9132 0.3631
vt 0.8761 0.3448
vt 0.4732 0.7819
vt 0.5650 0.7140
vt 0.5574 0.8111
vt 0.6217 0.7561
vt 0.4019 0.7730
vt 0.5003 0.6185
vt 0.6620 0.6642
vt 0.6896 0.7487
vt 0.6237 0.5372
vt 0.6168 0.6125
vt 0.4900 0.5191
vt 0.4435 0.5320
vt 0.6340 0.4292
vt 0.6786 0.4433
vt 0.8477 0.9702
vt 0.8880 0.7737
vt 0.8880 1.0000
vt 0.7971 0.0000
vt 0.8930 0.0366
vt 0.8337 0.0766
vt 0.7750 0.0370
vt 0.3648 0.2499
vt 0.6689 0.2036
vt 0.6314 0.0871
vt 0.7902 0.8809
vt 0.8477 0.7737
vt 0.8477 0.9551
vt 0.6773 0.0103
vt 0.7005 0.0528
vt 0.4287 0.0521
vt 0.3838 0.0667
vt 0.5509 0.0323
vt 0.9341 0.4933
vt 1.0000 0.5281
vt 0.9917 0.6600
vt 0.6916 0.7917
vt 0.8777 0.4355
vt 0.7364 0.7737
vt 1.0000 0.7023
vt 0.0000 0.1811
vt 0.0229 0.6016
vt 0.3433 0.3039
vt 0.0664 0.6587
vt 0.3322 0.5543
vt 0.1196 0.4159
vt 0.3200 0.4707
vt 0.9817 0.1716
vt 0.9645 0.2498
vt 0.8713 0.2269
vt 0.9166 0.1619
vt 0.7504 0.3631
vt 0.7496 0.3205
vt 0.9441 0.0891
vt 0.7323 0.2390
vt 0.7413 0.1514
vt 0.6795 0.1129
vt 0.6712 0.1880
vt 0.7902 0.8820
vt 0.6916 0.8820
vt 0.7007 0.7737
vt 0.6916 0.4855
vt 0.6767 0.5774
vt 0.3648 0.5327
vt 0.3973 0.4231
vt 0.6712 0.0264
vt 0.5836 0.0000
vn 0.1287 0.9881 0.0841
vn 0.3907 0.7287 0.5624
vn 0.7603 0.6356 0.1338
vn 0.2987 0.6596 -0.6897
vn 0.0983 0.9690 -0.2265
vn 0.6603 0.7421 0.1148
vn 0.0361 0.9272 0.3729
vn 0.0367 0.8346 -0.5496
vn -0.2682 0.9296 0.2527
vn -0.4171 0.8831 0.2150
vn 0.0932 -0.9684 -0.2315
vn -0.7263 -0.6053 0.3257
vn -0.7534 -0.6314 -0.1834
vn 0.1632 -0.7495 0.6416
vn 0.0393 -0.6672 0.7438
vn 0.8980 0.4396 0.0188
vn -0.1212 -0.9193 -0.3743
vn 0.0820 -0.9604 -0.2662
vn 0.5571 -0.7859 -0.2684
vn -0.7830 0.0566 0.6194
vn -0.2685 -0.1993 0.9424
vn 0.1351 0.2205 0.9660
vn -0.1973 0.9060 0.3744
vn 0.5424 -0.5360 0.6469
vn 0.1011 0.0258 0.9945
vn 0.0464 -0.0020 0.9989
vn 0.0938 0.1246 0.9878
vn 0.7064 0.1705 0.6869
vn 0.0438 0.8635 0.5024
vn -0.1332 0.9853 0.1070
vn 0.9725 -0.0950 -0.2125
vn 0.2358 -0.5934 -0.7696
vn 0.9353 0.2292 -0.2696
vn 0.7381 0.0537 -0.6725
vn 0.4187 -0.4062 -0.8122
vn -0.0224 -0.6706 -0.7415
vn -0.9070 -0.1273 -0.4013
vn -0.7061 -0.5409 -0.4570
vn -0.6467 -0.5286 -0.5498
vn -0.8796 -0.3340 -0.3388
vn -0.6214 -0.2285 -0.7494
vn -0.4823 -0.0903 -0.8713
vn -0.8329 -0.3445 -0.4331
vn -0.8052 -0.3299 -0.4927
vn -0.7726 0.6319 -0.0618
vn -0.9584 0.1134 -0.2621
vn -0.8123 0.5832 0.0049
vn -0.7699 0.3811 -0.5118
vn -0.0036 0.1376 -0.9905
vn -0.1140 0.0328 -0.9929
vn -0.5810 -0.2870 -0.7616
vn -0.1836 -0.7212 -0.6679
vn 0.5511 -0.4831 -0.6804
vn -0.2094 -0.3444 -0.9152
vn -0.2008 -0.1882 -0.9614
vn -0.3838 -0.3492 -0.8548
usemtl None
s 1
f 1/1/1 2/2/2 3/3/3
f 4/4/4 5/5/5 6/6/6
f 5/5/5 7/7/7 6/6/6
f 8/8/8 9/9/9 5/5/5
f 9/9/9 7/7/7 5/5/5
f 9/9/9 10/10/10 7/7/7
f 11/11/11 12/12/12 13/13/13
f 11/11/11 14/14/14 15/15/15
f 7/7/7 1/1/1 3/3/3
f 3/3/3 16/16/16 7/7/7
f 17/17/17 18/18/18 11/11/11
f 19/19/19 18/18/18 17/17/17
f 20/20/20 12/21/12 21/22/21
f 22/23/22 23/24/23 20/20/20
f 24/25/24 25/26/25 14/27/14
f 25/26/25 26/28/26 14/27/14
f 25/26/25 27/29/27 26/28/26
f 28/30/28 25/26/25 24/25/24
f 28/30/28 27/29/27 25/26/25
f 26/28/26 22/23/22 20/20/20
f 2/31/2 27/29/27 28/30/28
f 2/31/2 29/32/29 27/29/27
f 30/33/30 23/34/23 22/35/22
f 31/36/31 19/37/19 32/38/32
f 19/37/19 31/36/31 24/39/24
f 16/40/16 3/41/3 31/36/31
f 4/42/4 33/43/33 34/44/34
f 35/45/35 32/46/32 36/47/36
f 13/48/13 37/49/37 38/50/38
f 37/49/37 39/51/39 38/50/38
f 12/52/12 40/53/40 13/48/13
f 41/54/41 42/55/42 39/51/39
f 40/53/40 43/56/43 44/57/44
f 45/58/45 43/56/43 46/59/46
f 47/60/47 48/61/48 45/58/45
f 6/62/6 7/63/7 16/64/16
f 8/65/8 5/66/5 49/67/49
f 49/67/49 50/68/50 8/65/8
f 49/69/49 5/5/5 4/4/4
f 1/1/1 29/70/29 2/2/2
f 10/10/10 30/71/30 29/70/29
f 29/70/29 1/1/1 10/10/10
f 7/72/7 10/73/10 1/74/1
f 48/75/48 8/65/8 50/68/50
f 50/68/50 51/76/51 48/75/48
f 47/77/47 9/9/9 8/8/8
f 8/8/8 48/78/48 47/77/47
f 45/79/45 10/10/10 9/9/9
f 9/9/9 47/77/47 45/79/45
f 17/17/17 39/80/39 52/81/52
f 52/81/52 36/82/36 17/17/17
f 10/10/10 45/79/45 30/71/30
f 11/11/11 15/15/15 12/12/12
f 42/55/42 52/83/52 39/51/39
f 38/84/38 11/11/11 13/13/13
f 38/84/38 39/80/39 11/11/11
f 24/85/24 14/14/14 18/18/18
f 18/18/18 19/19/19 24/85/24
f 39/80/39 17/17/17 11/11/11
f 11/11/11 18/18/18 14/14/14
f 36/82/36 32/86/32 17/17/17
f 32/86/32 19/19/19 17/17/17
f 21/22/21 12/21/12 15/87/15
f 15/87/15 26/28/26 21/22/21
f 15/87/15 14/27/14 26/28/26
f 29/32/29 22/23/22 26/28/26
f 26/28/26 27/29/27 29/32/29
f 26/28/26 20/20/20 21/22/21
f 33/43/33 16/40/16 31/36/31
f 31/36/31 53/88/53 33/43/33
f 29/32/29 30/89/30 22/23/22
f 32/38/32 35/90/35 31/36/31
f 35/90/35 53/88/53 31/36/31
f 31/36/31 28/91/28 24/39/24
f 53/88/53 34/44/34 33/43/33
f 6/92/6 16/40/16 33/43/33
f 33/43/33 4/42/4 6/92/6
f 31/36/31 3/41/3 28/91/28
f 3/41/3 2/93/2 28/91/28
f 34/94/34 53/95/53 54/96/54
f 54/96/54 55/97/55 34/94/34
f 54/96/54 53/95/53 35/45/35
f 54/96/54 36/47/36 52/98/52
f 52/98/52 42/99/42 54/96/54
f 55/97/55 4/100/4 34/94/34
f 49/67/49 54/96/54 41/101/41
f 41/101/41 56/102/56 49/67/49
f 54/96/54 35/45/35 36/47/36
f 42/99/42 41/101/41 54/96/54
f 43/103/43 56/102/56 41/101/41
f 41/101/41 44/104/44 43/103/43
f 49/105/49 55/106/55 54/107/54
f 51/76/51 50/68/50 56/102/56
f 56/102/56 50/68/50 49/67/49
f 55/97/55 49/67/49 4/100/4
f 48/61/48 51/108/51 56/109/56
f 56/109/56 43/56/43 48/61/48
f 44/57/44 41/54/41 37/49/37
f 37/49/37 40/53/40 44/57/44
f 13/48/13 40/53/40 37/49/37
f 37/49/37 41/54/41 39/51/39
f 12/52/12 20/110/20 40/53/40
f 40/53/40 20/110/20 46/59/46
f 40/53/40 46/59/46 43/56/43
f 20/110/20 23/111/23 46/59/46
f 43/56/43 45/58/45 48/61/48
f 23/112/23 30/71/30 46/113/46
f 46/113/46 30/71/30 45/79/45
