{
  "accessors": [
    {
      "bufferView": 0,
      "componentType": 5125,
      "count": 324,
      "type": "SCALAR"
    },
    {
      "bufferView": 1,
      "componentType": 5126,
      "count": 115,
      "max": [
        0.998975038528442,
        1.0,
        0.988883137702942
      ],
      "min": [
        -0.998975038528442,
        -1.0,
        -0.988883197307587
      ],
      "type": "VEC3"
    },
    {
      "bufferView": 2,
      "componentType": 5126,
      "count": 115,
      "type": "VEC3"
    },
    {
      "bufferView": 3,
      "componentType": 5126,
      "count": 115,
      "type": "VEC2"
    }
  ],
  "asset": {
    "generator": "Substance Painter 2018.1.1",
    "version": "2.0"
  },
  "bufferViews": [
    {
      "buffer": 0,
      "byteLength": 1296,
      "target": 34963
    },
    {
      "buffer": 0,
      "byteLength": 1380,
      "byteOffset": 1296,
      "target": 34962
    },
    {
      "buffer": 0,
      "byteLength": 1380,
      "byteOffset": 2676,
      "target": 34962
    },
    {
      "buffer": 0,
      "byteLength": 920,
      "byteOffset": 4056,
      "target": 34962
    }
  ],
  "buffers": [
    {
      "byteLength": 4976,
      "uri": "fragment.bin"
    }
  ],
  "images": [
    {
      "uri": "None_baseColor.png"
    },
    {
      "uri": "None_occlusionRoughnessMetallic.png"
    },
    {
      "uri": "None_normal.png"
    }
  ],
  "materials": [
    {
      "alphaMode": "OPAQUE",
      "name": "None",
      "normalTexture": {
        "index": 2
      },
      "occlusionTexture": {
        "index": 1
      },
      "pbrMetallicRoughness": {
        "baseColorTexture": {
          "index": 0
        },
        "metallicRoughnessTexture": {
          "index": 1
        }
      }
    }
  ],
  "meshes": [
    {
      "name": "Cube_Cube.001",
      "primitives": [
        {
          "attributes": {
            "NORMAL": 2,
            "POSITION": 1,
            "TEXCOORD_0": 3
          },
          "indices": 0,
          "material": 0,
          "mode": 4
        }
      ]
    }
  ],
  "nodes": [
    {
      "children": [
        1
      ],
      "name": "fragment.obj",
      "scale": [
        1.01081502437592,
        1.01081502437592,
        1.01081502437592
      ],
      "translation": [
        -0.011262059211731,
        -0.00654196739196777,
        -0.0102889537811279
      ]
    },
    {
      "children": [
        2
      ],
      "name": "Cube_Cube.001"
    },
    {
      "mesh": 0,
      "name": "Cube_Cube.001"
    }
  ],
  "samplers": [
    {
      "magFilter": 9729,
      "minFilter": 9985,
      "wrapS": 10497,
      "wrapT": 10497
    }
  ],
  "scene": 0,
  "scenes": [
    {
      "name": "Scene",
      "nodes": [
        0
      ]
    }
  ],
  "textures": [
    {
      "sampler": 0,
      "source": 0
    },
    {
      "sampler": 0,
      "source": 1
    },
    {
      "sampler": 0,
      "source": 2
    }
  ]
}